# xmcd
#
# Track frame offsets:
#	150
#	15785
#	34099
#	44138
#	56316
#	69253
#	82250
#	100201
#	112704
#	133871
#	151907
#	167360
#	181702
#	199359
#	210927
#	225272
#	235524
#	251964
#	265365
#	283755
#	300620
#
# Disc length: 4247 seconds
#
# Revision: 0
# Processed by: cddbd v1.5.2PL0 Copyright (c) Steve Scherf et al.
# Submitted via: EZCDAudioConverter 3.1.1.2
#
DISCID=0e109515
DTITLE=Mariza - Best Of Mariza
DYEAR=2014
DGENRE=Fado
TTITLE0=Loucura
TTITLE1=Chuva
TTITLE2=É ou não é
TTITLE3=Maria Lisboa
TTITLE4=Menino do Bairro Negro
TTITLE5=Há Palavras que nos Beijam
TTITLE6=O Tempo não Pára
TTITLE7=Rosa Branca
TTITLE8=Primavera
TTITLE9=Barco Negro
TTITLE10=Meu Fado Meu
TTITLE11=Medo
TTITLE12=Promete, Jura
TTITLE13=Feira de Castro
TTITLE14=Há uma Música do Povo
TTITLE15=Recusa
TTITLE16=Cavaleiro Monge
TTITLE17=Oiça Lá Ó Senhor Vinho
TTITLE18=Ó Gente da Minha Terra
TTITLE19=Smile
TTITLE20=O Tempo Não Pára II
EXTD=
EXTT0=
EXTT1=
EXTT2=
EXTT3=
EXTT4=
EXTT5=
EXTT6=
EXTT7=
EXTT8=
EXTT9=
EXTT10=
EXTT11=
EXTT12=
EXTT13=
EXTT14=
EXTT15=
EXTT16=
EXTT17=
EXTT18=
EXTT19=
EXTT20=
PLAYORDER=
